# xmcd CD database file
#
# Track frame offsets:
#	150
#	25040
#	41498
#	61935
#	84495
#	104850
#	128440
#	147623
#	167845
#	186063
#	207190
#
# Disc length: 3106 seconds
#
# Revision: 4
# Processed by: cddbd v1.5.2PL0 Copyright (c) Steve Scherf et al.
# Submitted via: CDex 1.51
#
DISCID=960c200b
DTITLE=Counting Crows - August And Everything After
DYEAR=1993
DGENRE=Country
TTITLE0=Round Here
TTITLE1=Omaha
TTITLE2=Mr. Jones
TTITLE3=Perfect Blue Buildings
TTITLE4=Anna Begins
TTITLE5=Time And Time Again
TTITLE6=Rain King
TTITLE7=Sullivan Street
TTITLE8=Ghost Train
TTITLE9=Raining In Baltimore
TTITLE10=A Murder Of One
EXTD=YEAR: 1993
EXTT0=
EXTT1=
EXTT2=
EXTT3=
EXTT4=
EXTT5=
EXTT6=
EXTT7=
EXTT8=
EXTT9=
EXTT10=
PLAYORDER=
